<?xml version="1.0" encoding="UTF-8"?>
<svg id="Camada_2" xmlns="http://www.w3.org/2000/svg" viewBox="0 0 162.4 40.88">
  <defs>
    <style>
      .cls-1 {
        fill: #ff5900;
        isolation: isolate;
      }

      .cls-2 {
        fill: #0d0d0d;
      }
    </style>
  </defs>
  <g id="Camada_1-2" data-name="Camada_1">
    <g>
      <g>
        <path class="cls-1" d="M27.8,11.97L7.81,23.61c-1.6.93-3.6-.22-3.6-2.07v-9.57H0v12.46c0,8.62,6.62,16.03,15.23,16.44,9.19.43,16.78-6.89,16.78-15.99v-12.91h-4.21Z"/>
        <path class="cls-1" d="M4.21,2.4v9.57h23.59L7.81.33c-1.6-.93-3.6.22-3.6,2.07Z"/>
      </g>
      <g>
        <path class="cls-2" d="M97.06,16.04c-1.13,0-2.66.28-3.91.69v-7.35c-2.93-.48-4.28.78-4.28.78v19.82c0,1.47.66,2.25,2.13,2.69,2.19.63,3.82.78,5.38.78,5.16,0,8.22-3.38,8.22-8.76s-2.35-8.66-7.54-8.66ZM96.19,30.01c-.75,0-1.31-.06-3.03-.44v-9.44c1.66-.5,2.5-.59,3.19-.59,2.88,0,4,1.91,4,5.22s-1.22,5.25-4.16,5.25Z"/>
        <path class="cls-2" d="M154.43,16.13h3.16v.65h-1.2v3h-.74v-3h-1.22v-.65ZM162.4,16.13v3.65h-.73v-2.14l-1.01,1.59h-.41l-1.01-1.59v2.14h-.73v-3.65h.51l1.43,2.3,1.45-2.3h.5Z"/>
        <g>
          <path class="cls-2" d="M63.4,31.42c-.28,1.38-1.41,2.22-2.97,2.22-2,0-2.72-.75-3.13-2.13l-2.69-8.94-2.91,9.04c-.44,1.34-1.44,2-3.06,2s-2.72-.78-3-2.19l-3.13-15.29h4.47l2,12.45,3.31-11.01c.31-1.03,1.09-1.53,2.38-1.53s2.06.53,2.35,1.53l3.25,11.04,2.1-12.48h4.32l-3.28,15.29Z"/>
          <path class="cls-2" d="M77.15,15.91c4.75,0,7.85,2.69,7.85,8.41,0,1.22-.56,1.81-1.81,1.81h-9.91c.22,2.66,2.03,3.88,4.63,3.88,1.41,0,2.81-.22,4.66-.78l1.66-.53.56,3.25-1.66.53c-2.16.69-3.72,1-5.54,1-5.13,0-8.54-2.91-8.54-8.73,0-6.13,3.75-8.85,8.1-8.85ZM77.03,19.04c-2.25,0-3.63,1.59-3.78,4.16h7.57c0-2.28-1.13-4.16-3.78-4.16Z"/>
          <path class="cls-2" d="M116.14,33.49c-5.19,0-8.35-3.19-8.35-8.76s3.31-8.79,8.44-8.79,8.35,3.16,8.35,8.79-3.31,8.76-8.44,8.76ZM116.14,19.16c-2.66,0-3.97,2-3.97,5.57s1.44,5.57,4.07,5.57,4-1.94,4-5.57-1.47-5.57-4.1-5.57Z"/>
          <path class="cls-2" d="M147.82,31.42c-.28,1.38-1.41,2.22-2.97,2.22-2,0-2.72-.75-3.13-2.13l-2.69-8.94-2.91,9.04c-.44,1.34-1.44,2-3.06,2s-2.72-.78-3-2.19l-3.13-15.29h4.47l2,12.45,3.31-11.01c.31-1.03,1.09-1.53,2.38-1.53s2.06.53,2.35,1.53l3.25,11.04,2.1-12.48h4.32l-3.28,15.29Z"/>
        </g>
      </g>
    </g>
  </g>
</svg>