<?xml version="1.0" encoding="UTF-8"?>
<svg id="Camada_2" xmlns="http://www.w3.org/2000/svg" viewBox="0 0 23.64 22.68">
  <defs>
    <style>
      .cls-1 {
        fill: #ff5900;
        isolation: isolate;
      }
    </style>
  </defs>
  <g id="Camada_1-2" data-name="Camada_1">
    <path class="cls-1" d="M13.7,1.36l1.44,4.42c.26.81,1.02,1.36,1.88,1.36h4.65c1.91,0,2.71,2.45,1.16,3.57l-3.76,2.73c-.69.5-.98,1.39-.72,2.21l1.44,4.42c.59,1.82-1.49,3.33-3.04,2.21l-3.76-2.73c-.69-.5-1.63-.5-2.32,0l-3.76,2.73c-1.55,1.12-3.63-.39-3.04-2.21l1.44-4.42c.26-.81-.03-1.7-.72-2.21l-3.76-2.73c-1.55-1.12-.75-3.57,1.16-3.57h4.65c.86,0,1.61-.55,1.88-1.36l1.44-4.42c.59-1.82,3.16-1.82,3.75,0Z"/>
  </g>
</svg>