<?xml version="1.0" encoding="UTF-8"?>
<svg id="Camada_2" xmlns="http://www.w3.org/2000/svg" viewBox="0 0 31.35 31.58">
  <defs>
    <style>
      .cls-1 {
        fill: #1b1c23;
      }

      .cls-2 {
        fill: #a5a5a9;
      }
    </style>
  </defs>
  <g id="Camada_1-2" data-name="Camada_1">
    <g>
      <path class="cls-1" d="M31.32,26.2c-.82-5.45-4.11-10.14-8.8-12.55h0c-.35-.17-.79-.13-1.09.14-1.58,1.43-3.62,2.21-5.75,2.21s-4.17-.79-5.75-2.21c-.31-.28-.75-.32-1.09-.14h0C4.14,16.05.85,20.74.04,26.19c-.25,1.66.81,3.3,2.46,3.79,2.37.73,6.57,1.59,13.18,1.59s10.81-.87,13.18-1.59c1.66-.5,2.72-2.13,2.47-3.79ZM28.28,28.13c-2.24.69-6.25,1.51-12.61,1.51s-10.37-.82-12.61-1.51c-.73-.22-1.2-.93-1.1-1.64.69-4.61,3.38-8.59,7.22-10.79,1.85,1.45,4.12,2.25,6.49,2.25s4.64-.8,6.49-2.25c3.84,2.2,6.53,6.17,7.23,10.79.11.71-.37,1.42-1.11,1.64Z"/>
      <path class="cls-2" d="M15.67,14.75c4.07,0,7.37-3.31,7.37-7.37S19.74,0,15.67,0s-7.37,3.31-7.37,7.37,3.31,7.37,7.37,7.37ZM15.67,1.95c2.99,0,5.43,2.43,5.43,5.43s-2.43,5.43-5.43,5.43-5.43-2.43-5.43-5.43S12.68,1.95,15.67,1.95Z"/>
    </g>
  </g>
</svg>