<?xml version="1.0" encoding="UTF-8"?>
<svg id="Camada_2" xmlns="http://www.w3.org/2000/svg" viewBox="0 0 29.44 32.5">
  <defs>
    <style>
      .cls-1 {
        fill: #1b1c23;
      }

      .cls-2 {
        fill: #a5a5a9;
      }
    </style>
  </defs>
  <g id="Camada_1-2" data-name="Camada_1">
    <g>
      <path class="cls-1" d="M27.8,3.55c-.53-.73-1.17-1.37-1.9-1.91-2.26-1.64-5.24-1.64-11.17-1.64S5.81,0,3.55,1.64c-.73.53-1.37,1.17-1.9,1.91C0,5.81,0,8.79,0,14.72v3.06c0,5.93,0,8.91,1.64,11.17.53.73,1.17,1.37,1.91,1.91,2.26,1.64,5.24,1.64,11.17,1.64s8.91,0,11.17-1.64c.73-.53,1.37-1.17,1.91-1.91,1.64-2.26,1.64-5.24,1.64-11.17v-3.06c0-5.93,0-8.91-1.64-11.17ZM27.49,17.78c0,5.51,0,8.27-1.27,10.03-.41.57-.91,1.06-1.47,1.47-1.75,1.27-4.52,1.27-10.03,1.27s-8.27,0-10.03-1.27c-.57-.41-1.06-.91-1.47-1.47-1.27-1.75-1.27-4.52-1.27-10.03v-3.06c0-5.51,0-8.27,1.27-10.03.41-.57.91-1.06,1.47-1.47,1.75-1.27,4.52-1.27,10.03-1.27s8.27,0,10.03,1.27c.57.41,1.06.91,1.47,1.47,1.27,1.75,1.27,4.52,1.27,10.03v3.06Z"/>
      <path class="cls-1" d="M19.3,11.46H7.08c-.54,0-.97.44-.97.97s.44.97.97.97h12.22c.54,0,.97-.44.97-.97s-.44-.97-.97-.97Z"/>
    </g>
    <path class="cls-2" d="M11.67,21.04h-4.58c-.54,0-.97-.44-.97-.97s.44-.97.97-.97h4.58c.54,0,.97.44.97.97s-.44.97-.97.97Z"/>
  </g>
</svg>