<?xml version="1.0" encoding="UTF-8"?>
<svg id="Camada_2" xmlns="http://www.w3.org/2000/svg" viewBox="0 0 32.5 32.5">
  <defs>
    <style>
      .cls-1 {
        fill: #1b1c23;
      }

      .cls-2 {
        fill: #a5a5a9;
      }
    </style>
  </defs>
  <g id="Camada_1-2" data-name="Camada_1">
    <g>
      <path class="cls-1" d="M25.4,0H7.1C3.18,0,0,3.18,0,7.1v18.3c0,3.91,3.18,7.1,7.1,7.1h18.3c3.91,0,7.1-3.18,7.1-7.1V7.1c0-3.91-3.18-7.1-7.1-7.1ZM30.55,25.4c0,2.84-2.31,5.15-5.15,5.15H7.1c-2.84,0-5.15-2.31-5.15-5.15V7.1C1.95,4.26,4.26,1.95,7.1,1.95h18.3c2.84,0,5.15,2.31,5.15,5.15v18.3Z"/>
      <path class="cls-1" d="M16.25,7.08c-.54,0-.97.44-.97.97v16.38c0,.54.44.97.97.97s.97-.44.97-.97V8.06c0-.54-.44-.97-.97-.97Z"/>
    </g>
    <g>
      <path class="cls-2" d="M9.42,11.18c-.54,0-.97.44-.97.97v12.29c0,.54.44.97.97.97s.97-.44.97-.97v-12.29c0-.54-.44-.97-.97-.97Z"/>
      <path class="cls-2" d="M23.07,11.18c-.54,0-.97.44-.97.97v12.29c0,.54.44.97.97.97s.97-.44.97-.97v-12.29c0-.54-.44-.97-.97-.97Z"/>
    </g>
  </g>
</svg>