<?xml version="1.0" encoding="UTF-8"?>
<svg id="Camada_2" xmlns="http://www.w3.org/2000/svg" viewBox="0 0 32.5 32.5">
  <defs>
    <style>
      .cls-1 {
        fill: #1b1c23;
      }

      .cls-2 {
        fill: #a5a5a9;
      }
    </style>
  </defs>
  <g id="Camada_1-2" data-name="Camada_1">
    <path class="cls-1" d="M17.99,32.5h-3.48c-5.44,0-8.18,0-10.23-1.71-2.07-1.72-2.47-4.34-3.27-9.55l-.46-2.99h0c-.57-3.69-.85-5.54-.08-7.35.77-1.8,2.32-2.92,5.4-5.15l2.2-1.59C11.9,1.39,13.82,0,16.25,0s4.35,1.39,8.18,4.16l2.2,1.59c3.09,2.23,4.63,3.35,5.4,5.15.77,1.81.49,3.66-.08,7.35l-.46,2.99c-.8,5.21-1.2,7.83-3.27,9.55-2.05,1.71-4.79,1.71-10.23,1.71ZM2.48,17.95l.46,2.99c.73,4.72,1.09,7.1,2.59,8.34,1.51,1.26,4.01,1.26,8.99,1.26h3.48c4.97,0,7.47,0,8.99-1.26,1.5-1.25,1.86-3.62,2.59-8.34l.46-2.99c.51-3.32.77-4.99.21-6.29-.56-1.31-1.96-2.32-4.75-4.34l-2.2-1.59c-6.97-5.04-7.1-5.04-14.07,0l-2.2,1.59c-2.79,2.02-4.2,3.03-4.75,4.34-.55,1.3-.3,2.97.21,6.29h0Z"/>
    <path class="cls-2" d="M12.26,26.09c-.08-1.12.3-2.19,1.06-3.01.77-.82,1.81-1.28,2.93-1.28s2.16.45,2.93,1.28c.77.82,1.14,1.89,1.06,3.01l-.32,4.45c.71,0,1.36-.01,1.96-.03l.31-4.28c.12-1.64-.46-3.27-1.58-4.48-1.12-1.21-2.71-1.9-4.36-1.9s-3.23.69-4.36,1.9c-1.12,1.2-1.7,2.84-1.58,4.48l.31,4.28c.59.02,1.24.03,1.96.03l-.32-4.45Z"/>
  </g>
</svg>