<?xml version="1.0" encoding="UTF-8"?>
<svg id="Camada_2" xmlns="http://www.w3.org/2000/svg" viewBox="0 0 32.5 26.39">
  <defs>
    <style>
      .cls-1 {
        fill: #1b1c23;
      }

      .cls-2 {
        fill: #a5a5a9;
      }
    </style>
  </defs>
  <g id="Camada_1-2" data-name="Camada_1">
    <g>
      <path class="cls-1" d="M25.41,26.39v-1.95c2.43,0,5.14-4.62,5.14-11.25S27.84,1.95,25.41,1.95V0c3.97,0,7.08,5.8,7.08,13.19s-3.11,13.19-7.08,13.19Z"/>
      <path class="cls-1" d="M25.41,26.39c-4.68,0-13.77-3.24-20.57-5.96-2.94-1.18-4.85-4.02-4.85-7.24s1.9-6.06,4.85-7.24C11.64,3.24,20.73,0,25.41,0v1.95c-4.6,0-14.41,3.64-19.84,5.82-2.2.88-3.62,3.01-3.62,5.43s1.42,4.55,3.62,5.43c5.44,2.17,15.24,5.82,19.84,5.82v1.95Z"/>
    </g>
    <path class="cls-2" d="M25.41,26.39c-3.97,0-7.08-5.8-7.08-13.19S21.44,0,25.41,0c.54,0,.97.44.97.97s-.44.97-.97.97c-2.43,0-5.14,4.62-5.14,11.25s2.71,11.25,5.14,11.25c.54,0,.97.44.97.97s-.44.97-.97.97Z"/>
  </g>
</svg>