<?xml version="1.0" encoding="UTF-8"?>
<svg id="Camada_2" xmlns="http://www.w3.org/2000/svg" viewBox="0 0 30.7 26.39">
  <defs>
    <style>
      .cls-1 {
        fill: #1b1c23;
      }

      .cls-2 {
        fill: #a5a5a9;
      }
    </style>
  </defs>
  <g id="Camada_1-2" data-name="Camada_1">
    <path class="cls-1" d="M15.35,26.39c-1.39,0-2.78-.02-4.19-.05-4.63-.12-7.18-.18-9.08-2.09C.17,22.34.12,19.85.02,15.34H.02C0,13.91,0,12.47.02,11.05.12,6.54.17,4.05,2.07,2.14,3.98.23,6.53.17,11.15.05,13.98-.02,16.72-.02,19.54.05c4.63.12,7.18.18,9.08,2.09,1.9,1.91,1.95,4.4,2.05,8.91.03,1.42.03,2.86,0,4.28-.1,4.51-.15,7-2.05,8.91-1.9,1.91-4.45,1.97-9.08,2.09-1.41.04-2.8.05-4.2.05ZM1.97,15.29c.09,4.27.13,6.22,1.48,7.58,1.35,1.36,3.36,1.41,7.75,1.52,2.79.07,5.5.07,8.29,0,4.39-.11,6.4-.16,7.75-1.52,1.35-1.36,1.39-3.31,1.48-7.58.03-1.39.03-2.81,0-4.2-.09-4.27-.13-6.22-1.48-7.58-1.35-1.36-3.36-1.41-7.75-1.52-2.79-.07-5.5-.07-8.29,0-4.39.11-6.4.16-7.75,1.52-1.35,1.36-1.39,3.31-1.48,7.58-.03,1.39-.03,2.81,0,4.2Z"/>
    <path class="cls-2" d="M19.31,9.35c-3.37,1.91-4.55,1.91-7.92,0L2.78,4.47c-.27.53-.45,1.15-.56,1.92l8.21,4.65c1.98,1.12,3.45,1.68,4.92,1.68s2.94-.56,4.92-1.68l8.21-4.65c-.11-.77-.29-1.39-.56-1.92l-8.62,4.88Z"/>
  </g>
</svg>