<?xml version="1.0" encoding="UTF-8"?>
<svg id="Camada_2" xmlns="http://www.w3.org/2000/svg" viewBox="0 0 32.5 32.5">
  <defs>
    <style>
      .cls-1 {
        isolation: isolate;
        opacity: .4;
      }

      .cls-2 {
        fill: #1b1c23;
      }
    </style>
  </defs>
  <g id="Camada_1-2" data-name="Camada_1">
    <g>
      <path class="cls-2" d="M25.4,0H7.1C3.18,0,0,3.18,0,7.1v18.3c0,3.91,3.18,7.1,7.1,7.1h18.3c3.91,0,7.1-3.18,7.1-7.1V7.1c0-3.91-3.18-7.1-7.1-7.1ZM30.55,25.4c0,2.84-2.31,5.15-5.15,5.15H7.1c-2.84,0-5.15-2.31-5.15-5.15V7.1C1.95,4.26,4.26,1.95,7.1,1.95h18.3c2.84,0,5.15,2.31,5.15,5.15v18.3Z"/>
      <path class="cls-2" d="M24.1,14.07l-1.87-1.61c-.41-.35-1.02-.31-1.37.1s-.31,1.02.1,1.37l1.87,1.61c.29.25.61.53.77.7-.16.17-.48.45-.77.7l-1.87,1.61c-.41.35-.45.97-.1,1.37.19.22.46.34.74.34.23,0,.45-.08.64-.24l1.87-1.61c.92-.79,1.52-1.31,1.52-2.18s-.6-1.39-1.52-2.18Z"/>
      <path class="cls-2" d="M11.54,13.93c.41-.35.45-.97.1-1.37-.35-.41-.97-.45-1.37-.1l-1.87,1.61c-.92.79-1.52,1.31-1.52,2.18s.6,1.39,1.52,2.18l1.87,1.62c.18.16.41.24.64.24.27,0,.55-.11.74-.34.35-.41.31-1.02-.1-1.37l-1.87-1.61c-.29-.25-.61-.53-.77-.7.16-.17.48-.45.77-.7l1.87-1.61Z"/>
    </g>
    <g class="cls-1">
      <path class="cls-2" d="M14.72,21.8c-.1,0-.21-.02-.31-.05-.51-.17-.79-.72-.62-1.23l3.05-9.16c.17-.51.72-.79,1.23-.62.51.17.79.72.62,1.23l-3.05,9.16c-.14.41-.52.67-.92.67Z"/>
    </g>
  </g>
</svg>