<?xml version="1.0" encoding="UTF-8"?>
<svg id="Camada_2" xmlns="http://www.w3.org/2000/svg" viewBox="0 0 32.5 32.5">
  <defs>
    <style>
      .cls-1 {
        fill: #1b1c23;
      }

      .cls-2 {
        fill: #a5a5a9;
      }
    </style>
  </defs>
  <g id="Camada_1-2" data-name="Camada_1">
    <path class="cls-1" d="M32.4,8.71h0s-1.47-3.14-1.47-3.14c-1.18-2.53-1.84-3.92-3.25-4.75-1.38-.82-2.96-.82-6.09-.82h-10.69c-3.14,0-4.71,0-6.09.82-1.41.84-2.06,2.23-3.25,4.75L.09,8.71h0c-.06.13-.1.27-.1.41v8.69c0,6.72,0,10.1,2.27,12.39,2.27,2.3,5.62,2.3,12.28,2.3h3.39c6.66,0,10.01,0,12.28-2.3,2.27-2.29,2.27-5.67,2.27-12.39v-8.69c0-.15-.04-.29-.1-.41ZM5.8,2.5c.92-.55,2.32-.55,5.1-.55h10.69c2.78,0,4.18,0,5.1.55.86.51,1.35,1.5,2.48,3.9l.82,1.75H2.51l.82-1.75c1.12-2.4,1.62-3.39,2.48-3.9ZM30.55,17.81c0,6.19,0,9.3-1.71,11.02-1.7,1.72-4.77,1.72-10.9,1.72h-3.39c-6.12,0-9.19,0-10.9-1.72-1.71-1.72-1.71-4.83-1.71-11.02v-7.71h28.6v7.71Z"/>
    <path class="cls-2" d="M19.3,18.85h-6.11c-.54,0-.97-.44-.97-.97s.44-.97.97-.97h6.11c.54,0,.97.44.97.97s-.44.97-.97.97Z"/>
  </g>
</svg>